HIERARCHY
ROOT Pelvis
{
	OFFSET 0.000000 0.000000 0.000000
	CHANNELS 6 Xposition Yposition Zposition Xrotation Yrotation Zrotation
	JOINT LeftUpLeg_virtual
	{
		OFFSET 0.000000 0.000000 0.000000
		CHANNELS 3 Xrotation Yrotation Zrotation
		JOINT LeftUpLeg
		{
			OFFSET 18.735201 -5.666702 -4.541200
			CHANNELS 3 Xrotation Yrotation Zrotation
			JOINT LeftLeg
			{
				OFFSET -0.021200 -31.938179 0.493100
				CHANNELS 3 Xrotation Yrotation Zrotation
				JOINT LeftFoot
				{
					OFFSET 0.021200 -31.938179 -4.336299
					CHANNELS 3 Xrotation Yrotation Zrotation
					JOINT LeftToeBase
					{
						OFFSET 0.943001 -26.722000 15.023500
						CHANNELS 3 Xrotation Yrotation Zrotation
						End Site
						{
							OFFSET 0 0 0
						}
					}
				}
			}
		}
	}
	JOINT RightUpLeg_virtual
	{
		OFFSET 0.000000 0.000000 0.000000
		CHANNELS 3 Xrotation Yrotation Zrotation
		JOINT RightUpLeg
		{
			OFFSET -18.735201 -5.666702 -4.541200
			CHANNELS 3 Xrotation Yrotation Zrotation
			JOINT RightLeg
			{
				OFFSET 0.018946 -31.938133 0.493100
				CHANNELS 3 Xrotation Yrotation Zrotation
				JOINT RightFoot
				{
					OFFSET -0.018946 -31.938126 -4.336299
					CHANNELS 3 Xrotation Yrotation Zrotation
					JOINT RightToeBase
					{
						OFFSET -0.943001 -26.722004 15.023500
						CHANNELS 3 Xrotation Yrotation Zrotation
						End Site
						{
							OFFSET 0 0 0
						}
					}
				}
			}
		}
	}
	JOINT Hips_virtual
	{
		OFFSET 0.000000 0.000000 0.000000
		CHANNELS 3 Xrotation Yrotation Zrotation
		JOINT Hips
		{
			OFFSET -0.000000 -0.000000 -0.000000
			CHANNELS 3 Xrotation Yrotation Zrotation
			JOINT Spine
			{
				OFFSET 0.000000 10.199997 -0.299500
				CHANNELS 3 Xrotation Yrotation Zrotation
				JOINT Spine1
				{
					OFFSET 0.000000 11.900002 -1.516600
					CHANNELS 3 Xrotation Yrotation Zrotation
					JOINT Spine2
					{
						OFFSET 0.000000 13.600006 -2.842500
						CHANNELS 3 Xrotation Yrotation Zrotation
						JOINT Neck_virtual
						{
							OFFSET 0.000000 0.000000 0.000000
							CHANNELS 3 Xrotation Yrotation Zrotation
							JOINT Neck
							{
								OFFSET 0.000000 9.624100 -2.890100
								CHANNELS 3 Xrotation Yrotation Zrotation
								JOINT Head
								{
									OFFSET 0.000000 14.068802 -1.351900
									CHANNELS 3 Xrotation Yrotation Zrotation
									End Site
									{
										OFFSET 0 0 0
									}
								}
							}
						}
						JOINT LeftShoulder_virtual
						{
							OFFSET 0.000000 0.000000 0.000000
							CHANNELS 3 Xrotation Yrotation Zrotation
							JOINT LeftShoulder
							{
								OFFSET 15.263000 10.923401 -0.547700
								CHANNELS 3 Xrotation Yrotation Zrotation
								JOINT LeftArm
								{
									OFFSET 25.438599 -2.830597 -13.032500
									CHANNELS 3 Xrotation Yrotation Zrotation
									JOINT LeftForeArm
									{
										OFFSET 29.960503 0.000000 0.000000
										CHANNELS 3 Xrotation Yrotation Zrotation
										JOINT LeftHand
										{
											OFFSET 27.849251 0.000000 0.000000
											CHANNELS 3 Xrotation Yrotation Zrotation
											End Site
											{
												OFFSET 0 0 0
											}
										}
									}
								}
							}
						}
						JOINT RightShoulder_virtual
						{
							OFFSET 0.000000 0.000000 0.000000
							CHANNELS 3 Xrotation Yrotation Zrotation
							JOINT RightShoulder
							{
								OFFSET -15.263000 10.923401 -0.547700
								CHANNELS 3 Xrotation Yrotation Zrotation
								JOINT RightArm
								{
									OFFSET -25.438599 -2.830597 -13.032500
									CHANNELS 3 Xrotation Yrotation Zrotation
									JOINT RightForeArm
									{
										OFFSET -29.960503 0.000000 0.000000
										CHANNELS 3 Xrotation Yrotation Zrotation
										JOINT RightHand
										{
											OFFSET -27.849251 0.000000 0.000000
											CHANNELS 3 Xrotation Yrotation Zrotation
											End Site
											{
												OFFSET 0 0 0
											}
										}
									}
								}
							}
						}
					}
				}
			}
		}
	}
}
MOTION
Frames: 10
Frame Time: 0.03333333
-6.571049 83.262138 47.190624 0.000000 0.000000 0.000000 31.261277 16.974974 -20.621664 -86.027011 -4.667877 17.395324 45.759887 5.798442 -11.381669 6.446204 -0.658806 15.127585 0.000000 0.000000 0.000000 32.175590 17.633535 -21.935530 -14.297674 -23.267649 -22.213044 74.286565 -4.855427 -3.615927 37.492934 -2.764079 7.956003 0.000000 0.000000 0.000000 31.051160 17.933133 -20.942579 0.450447 -0.100334 -0.634509 7.589420 11.493923 -6.503685 11.859284 11.841286 -7.829261 0.000000 0.000000 0.000000 11.648829 11.225949 -8.194240 -3.687579 -2.262546 4.017403 0.000000 0.000000 0.000000 12.057756 11.305035 -8.601620 0.931588 2.814875 5.032722 20.130147 -46.615529 -20.672577 0.748753 -27.515525 -0.748273 0.000000 0.000000 0.000000 12.755954 11.283967 -8.440084 4.617120 14.032518 -9.734679 -13.482986 57.290380 29.017492 2.069448 42.435368 1.975942 0.000000 0.000000 0.000000 
-6.480319 83.225937 48.518658 0.000000 0.000000 0.000000 29.046486 18.368406 -19.944977 -83.948182 -3.361336 18.479193 47.036402 5.195206 -11.742352 3.606408 -0.797940 14.535686 0.000000 0.000000 0.000000 29.901281 19.170032 -21.209802 -16.629858 -22.625294 -20.460795 69.604354 -3.120763 -4.275739 36.759853 -3.067651 6.595003 0.000000 0.000000 0.000000 28.678564 19.081786 -20.166531 0.586621 -0.254583 -0.644268 7.858241 10.106388 -7.062559 12.176009 11.087665 -7.849784 0.000000 0.000000 0.000000 11.939864 10.442540 -8.223141 -3.806026 -2.204897 3.917329 0.000000 0.000000 0.000000 12.410528 10.512228 -8.608566 1.066442 2.459987 5.580871 19.794209 -49.235538 -12.724432 0.965263 -26.588128 -0.509546 0.000000 0.000000 0.000000 13.205890 10.549455 -8.459285 4.086930 13.164149 -8.653379 -11.129647 53.168631 21.439708 2.515717 39.329056 1.561607 0.000000 0.000000 0.000000 
-6.248741 83.361305 50.078602 0.000000 0.000000 0.000000 26.824629 19.280915 -19.380856 -81.765608 -2.118479 19.162478 48.394213 4.609623 -11.969271 1.649401 -0.430298 14.266138 0.000000 0.000000 0.000000 27.564929 20.247947 -20.625305 -19.007945 -22.202356 -18.924475 65.405796 -1.218605 -4.801405 36.054106 -3.065682 4.726024 0.000000 0.000000 0.000000 26.404302 19.743196 -19.614533 0.765242 -0.571567 -0.681350 8.179333 8.680744 -7.725133 12.479645 10.072956 -7.829229 0.000000 0.000000 0.000000 12.274810 9.416077 -8.184422 -3.956458 -2.106915 3.792472 0.000000 0.000000 0.000000 12.745801 9.480636 -8.552565 1.121453 2.195300 6.253382 17.037719 -51.881984 -6.916119 1.023017 -25.386488 -0.183812 0.000000 0.000000 0.000000 13.671594 9.523433 -8.427087 3.674343 12.379580 -8.494841 -9.534135 49.606885 14.504404 2.783756 36.829715 1.240078 0.000000 0.000000 0.000000 
-5.867525 83.615631 51.771679 0.000000 0.000000 0.000000 24.562130 19.600756 -18.972527 -79.306993 -1.194971 19.464277 50.050229 4.050863 -11.831126 0.296612 0.247343 14.373404 0.000000 0.000000 0.000000 25.058972 20.700913 -20.185617 -21.207140 -22.063914 -17.857641 61.363649 0.495771 -5.212090 34.932398 -3.059803 2.562779 0.000000 0.000000 0.000000 24.169082 19.847772 -19.283311 0.945351 -0.868276 -0.751994 8.515158 7.116418 -8.381490 12.775132 8.674879 -7.732778 0.000000 0.000000 0.000000 12.659333 8.020870 -8.041592 -4.107398 -1.958145 3.637119 0.000000 0.000000 0.000000 13.054366 8.095926 -8.388720 1.087018 2.010396 7.004216 11.497809 -54.436895 -3.702940 0.889805 -23.916094 0.143184 0.000000 0.000000 0.000000 14.125830 8.097012 -8.306549 3.369428 11.809882 -9.243084 -9.072659 46.452161 8.802487 2.883937 35.097760 0.970304 0.000000 0.000000 0.000000 
-5.299662 83.968399 53.362267 0.000000 0.000000 0.000000 22.283477 19.220198 -18.755582 -76.319707 -0.777190 19.482242 51.569540 3.390067 -11.159889 -1.339569 0.647415 14.327189 0.000000 0.000000 0.000000 22.473209 20.404109 -19.922958 -22.867234 -21.984950 -17.181802 56.736001 2.057079 -5.566046 33.463911 -2.699930 0.901334 0.000000 0.000000 0.000000 21.919455 19.402232 -19.155274 1.037683 -1.172277 -0.756533 8.782527 5.417984 -8.891748 13.106023 6.861076 -7.525791 0.000000 0.000000 0.000000 13.036401 6.218126 -7.768880 -4.247935 -1.741814 3.432567 0.000000 0.000000 0.000000 13.331571 6.322762 -8.093712 0.972069 1.890629 7.808513 3.494643 -56.675612 -3.165765 0.618809 -22.337203 0.408499 0.000000 0.000000 0.000000 14.543537 6.261197 -8.063935 3.168010 11.569200 -10.708617 -10.039981 43.857399 4.813894 2.843127 34.061026 0.699185 0.000000 0.000000 0.000000 
-4.591175 84.354752 54.820587 0.000000 0.000000 0.000000 20.096522 18.167058 -18.783437 -72.854752 -0.718772 19.552557 52.740067 2.690232 -10.050033 -3.497333 0.670878 13.938727 0.000000 0.000000 0.000000 19.995947 19.338417 -19.913107 -23.905145 -22.045556 -16.931609 50.754214 3.647286 -5.577135 32.060676 -1.458333 0.699299 0.000000 0.000000 0.000000 19.676776 18.462368 -19.230123 1.014000 -1.355373 -0.682135 8.954609 3.640369 -9.129867 13.423679 4.721853 -7.188016 0.000000 0.000000 0.000000 13.363959 4.103091 -7.367073 -4.369707 -1.478481 3.177273 0.000000 0.000000 0.000000 13.567360 4.219110 -7.644781 0.801750 1.772047 8.645867 -6.011957 -58.294251 -4.827741 0.232440 -20.773667 0.521486 0.000000 0.000000 0.000000 14.870049 4.117551 -7.676088 3.041860 11.658421 -12.538389 -13.184496 41.955298 3.185428 2.799989 33.698921 0.397679 0.000000 0.000000 0.000000 
-3.778483 84.791405 56.124969 0.000000 0.000000 0.000000 18.042069 16.560938 -19.100212 -69.323640 -0.505983 20.129150 53.526065 2.248881 -8.809412 -6.096374 0.563355 13.320870 0.000000 0.000000 0.000000 17.671342 17.552599 -20.165106 -24.738793 -22.331821 -17.110887 43.332066 5.343721 -4.863961 31.447086 1.048534 2.578576 0.000000 0.000000 0.000000 17.559081 17.043803 -19.527176 0.824772 -1.327600 -0.604498 9.016858 1.893411 -9.021431 13.692543 2.414896 -6.708466 0.000000 0.000000 0.000000 13.583400 1.817952 -6.830917 -4.498377 -1.184635 2.868465 0.000000 0.000000 0.000000 13.726248 1.950875 -7.057156 0.626946 1.655644 9.458688 -15.999452 -59.288050 -8.030854 -0.166262 -19.383317 0.491666 0.000000 0.000000 0.000000 15.049704 1.823490 -7.171607 2.983417 11.977934 -14.416849 -18.981745 40.874898 4.256792 2.779080 33.731685 0.006617 0.000000 0.000000 0.000000 
-2.907490 85.349609 57.182671 0.000000 0.000000 0.000000 16.159329 14.475567 -19.639610 -66.150894 0.186597 21.222540 53.834865 2.185403 -7.622110 -8.764198 0.527108 12.682688 0.000000 0.000000 0.000000 15.587678 15.277489 -20.631889 -25.778679 -22.619915 -17.527756 35.020002 6.948509 -3.389224 31.707391 4.604962 6.198420 0.000000 0.000000 0.000000 15.653376 15.193196 -20.001468 0.721509 -1.236945 -0.544887 8.963828 0.331392 -8.594965 13.832899 0.148182 -6.122652 0.000000 0.000000 0.000000 13.640808 -0.423571 -6.204406 -4.649419 -0.883615 2.523093 0.000000 0.000000 0.000000 13.768796 -0.291624 -6.367601 0.472379 1.517091 10.279006 -25.739675 -59.790643 -12.350698 -0.543486 -18.517174 0.317724 0.000000 0.000000 0.000000 15.049263 -0.425013 -6.567805 2.951980 12.376248 -15.987475 -28.070525 40.168080 8.476617 2.805919 33.871851 -0.439256 0.000000 0.000000 0.000000 
-2.024781 86.048271 58.012562 0.000000 0.000000 0.000000 14.500007 11.962216 -20.293284 -63.576077 1.305150 22.548182 53.734720 2.441793 -6.522789 -10.914702 0.690319 12.222828 0.000000 0.000000 0.000000 13.811555 12.801999 -21.232029 -27.105466 -22.609871 -17.935672 26.832455 7.914468 -1.537693 31.795828 8.075687 10.231353 0.000000 0.000000 0.000000 14.053145 12.919569 -20.577207 0.575650 -1.144508 -0.567936 8.831646 -0.967421 -7.914798 13.810894 -1.892446 -5.465383 0.000000 0.000000 0.000000 13.550104 -2.426331 -5.526484 -4.832934 -0.603272 2.162315 0.000000 0.000000 0.000000 13.683387 -2.303505 -5.626712 0.369058 1.393271 11.116792 -35.112251 -59.959492 -17.505913 -0.846989 -18.204358 0.065372 0.000000 0.000000 0.000000 14.867973 -2.428778 -5.900255 2.911923 12.728939 -17.027865 -40.346303 38.955625 15.953970 2.918088 33.996631 -0.930019 0.000000 0.000000 0.000000 
-1.160712 86.899796 58.486938 0.000000 0.000000 0.000000 13.124791 9.167105 -20.971175 -61.629651 2.798676 23.862885 53.332006 2.858974 -5.502112 -12.419545 0.972810 11.906400 0.000000 0.000000 0.000000 12.300163 10.139194 -21.824987 -28.631272 -21.885456 -18.047108 19.827682 8.004413 0.094589 30.482035 10.404392 13.862950 0.000000 0.000000 0.000000 12.782463 10.324212 -21.158587 0.543843 -1.113980 -0.615411 8.621771 -1.932548 -7.085134 13.630490 -3.591329 -4.791106 0.000000 0.000000 0.000000 13.321814 -4.074791 -4.849952 -5.067276 -0.350980 1.812135 0.000000 0.000000 0.000000 13.486362 -3.966547 -4.892478 0.308044 1.357601 12.064655 -44.022758 -59.871751 -23.212772 -1.102955 -18.481321 -0.223323 0.000000 0.000000 0.000000 14.550280 -4.076008 -5.214851 2.857945 12.945627 -17.566553 -53.984220 36.098123 25.345437 3.030472 33.993298 -1.398012 0.000000 0.000000 0.000000 
